<?xml version="1.0" standalone="no"?>
<!DOCTYPE svg PUBLIC "-//W3C//DTD SVG 20010904//EN"
 "http://www.w3.org/TR/2001/REC-SVG-20010904/DTD/svg10.dtd">
<svg version="1.0" xmlns="http://www.w3.org/2000/svg"
 width="840.000000pt" height="572.000000pt" viewBox="0 0 840.000000 572.000000"
 preserveAspectRatio="xMidYMid meet">

<g transform="translate(0.000000,572.000000) scale(0.100000,-0.100000)"
fill="#000000" stroke="none">
<path d="M4055 5410 c-448 -51 -849 -329 -1050 -728 -102 -204 -140 -361 -139
-587 0 -134 4 -175 23 -255 96 -386 370 -970 764 -1625 237 -395 516 -805 547
-805 17 0 99 111 265 360 514 773 923 1580 1041 2055 67 268 30 563 -105 840
-159 326 -433 566 -774 680 -176 59 -399 84 -572 65z m300 -715 c212 -54 397
-233 459 -445 100 -338 -119 -713 -464 -794 -36 -9 -103 -16 -150 -16 -179 0
-318 58 -446 185 -203 202 -249 478 -123 735 50 101 158 216 254 270 131 75
326 101 470 65z"/>
<path d="M3000 1674 c-308 -94 -513 -205 -646 -346 -313 -334 12 -708 783
-901 329 -83 653 -120 1063 -120 312 0 509 15 770 59 316 53 553 124 775 234
426 210 535 485 293 737 -119 123 -310 229 -568 313 -181 59 -225 69 -144 31
263 -123 372 -282 300 -436 -174 -373 -1301 -564 -2176 -369 -503 113 -778
335 -680 551 39 88 157 185 304 253 81 38 64 36 -74 -6z"/>
</g>
</svg>
